<?xml version="1.0" standalone="no"?>
<!DOCTYPE svg PUBLIC "-//W3C//DTD SVG 20010904//EN"
 "http://www.w3.org/TR/2001/REC-SVG-20010904/DTD/svg10.dtd">
<svg version="1.0" xmlns="http://www.w3.org/2000/svg"
 width="240.000000pt" height="240.000000pt" viewBox="0 0 240.000000 240.000000"
 preserveAspectRatio="xMidYMid meet">
<metadata>
Created by potrace 1.14, written by Peter Selinger 2001-2017
</metadata>
<g transform="translate(0.000000,240.000000) scale(0.100000,-0.100000)"
fill="#000000" stroke="none">
<path d="M1040 2309 c-85 -50 -177 -103 -205 -118 -70 -39 -601 -347 -653
-378 l-22 -14 2 -601 3 -601 285 -165 c157 -90 390 -225 518 -299 l232 -135
38 22 c20 13 53 32 72 42 73 41 367 212 410 238 25 15 65 39 90 52 25 14 61
34 80 45 19 11 105 61 190 110 l155 90 0 603 0 604 -150 88 c-82 49 -156 91
-164 95 -7 3 -91 51 -185 105 -312 181 -517 299 -529 303 -7 3 -82 -36 -167
-86z"/>
</g>
</svg>
